<svg width="179" height="34" viewBox="0 0 179 34" fill="none" xmlns="http://www.w3.org/2000/svg">
<path d="M51.7031 27L47.5469 11.7273H51.8324L54.1989 21.9886H54.3381L56.804 11.7273H61.0099L63.5156 21.929H63.6449L65.9716 11.7273H70.2472L66.1009 27H61.6165L58.9915 17.3949H58.8026L56.1776 27H51.7031ZM76.8619 27.2884C75.8874 27.2884 75.0191 27.1193 74.2567 26.7812C73.4944 26.4366 72.8912 25.9295 72.4471 25.2599C72.0096 24.5838 71.7908 23.742 71.7908 22.7344C71.7908 21.8859 71.9466 21.1733 72.2582 20.5966C72.5697 20.0199 72.994 19.5559 73.5309 19.2045C74.0678 18.8532 74.6777 18.5881 75.3604 18.4091C76.0498 18.2301 76.7724 18.1042 77.5281 18.0312C78.4163 17.9384 79.1322 17.8523 79.6758 17.7727C80.2193 17.6866 80.6138 17.5606 80.859 17.3949C81.1043 17.2292 81.2269 16.9839 81.2269 16.6591V16.5994C81.2269 15.9697 81.0281 15.4825 80.6303 15.1378C80.2392 14.7931 79.6824 14.6207 78.9599 14.6207C78.1976 14.6207 77.591 14.7898 77.1403 15.1278C76.6895 15.4593 76.3912 15.8769 76.2454 16.3807L72.3278 16.0625C72.5266 15.1345 72.9177 14.3324 73.5011 13.6562C74.0844 12.9735 74.8368 12.4498 75.7582 12.0852C76.6862 11.714 77.7601 11.5284 78.9798 11.5284C79.8282 11.5284 80.6403 11.6278 81.4158 11.8267C82.198 12.0256 82.8907 12.3338 83.494 12.7514C84.1038 13.169 84.5844 13.706 84.9357 14.3622C85.2871 15.0118 85.4627 15.7907 85.4627 16.6989V27H81.4457V24.8821H81.3263C81.0811 25.3594 80.753 25.7803 80.342 26.1449C79.931 26.5028 79.4371 26.7846 78.8604 26.9901C78.2837 27.1889 77.6175 27.2884 76.8619 27.2884ZM78.0749 24.3651C78.698 24.3651 79.2482 24.2424 79.7255 23.9972C80.2028 23.7453 80.5773 23.4072 80.8491 22.983C81.1209 22.5587 81.2567 22.0781 81.2567 21.5412V19.9205C81.1242 20.0066 80.9419 20.0862 80.7099 20.1591C80.4845 20.2254 80.2293 20.2884 79.9442 20.348C79.6592 20.401 79.3742 20.4508 79.0891 20.4972C78.8041 20.5369 78.5456 20.5734 78.3136 20.6065C77.8164 20.6795 77.3822 20.7955 77.011 20.9545C76.6398 21.1136 76.3514 21.3291 76.146 21.6009C75.9405 21.866 75.8377 22.1974 75.8377 22.5952C75.8377 23.1719 76.0465 23.6127 76.4641 23.9176C76.8884 24.2159 77.4253 24.3651 78.0749 24.3651ZM88.7489 27V11.7273H92.8555V14.392H93.0146C93.293 13.4441 93.7603 12.7282 94.4165 12.2443C95.0728 11.7538 95.8285 11.5085 96.6836 11.5085C96.8957 11.5085 97.1244 11.5218 97.3697 11.5483C97.6149 11.5748 97.8304 11.6113 98.016 11.6577V15.4162C97.8171 15.3565 97.542 15.3035 97.1907 15.2571C96.8394 15.2107 96.5179 15.1875 96.2262 15.1875C95.6031 15.1875 95.0463 15.3234 94.5558 15.5952C94.0719 15.8603 93.6874 16.2315 93.4023 16.7088C93.1239 17.1861 92.9847 17.7363 92.9847 18.3594V27H88.7489ZM105.123 27.2486C103.963 27.2486 102.912 26.9503 101.971 26.3537C101.036 25.7505 100.294 24.8655 99.7436 23.6989C99.2 22.5256 98.9283 21.0871 98.9283 19.3835C98.9283 17.6335 99.21 16.1785 99.7734 15.0185C100.337 13.8518 101.086 12.9801 102.021 12.4034C102.962 11.8201 103.993 11.5284 105.113 11.5284C105.968 11.5284 106.681 11.6742 107.251 11.9659C107.827 12.2509 108.291 12.6089 108.643 13.0398C109.001 13.464 109.272 13.8816 109.458 14.2926H109.587V6.63636H113.813V27H109.637V24.554H109.458C109.259 24.9782 108.978 25.3991 108.613 25.8168C108.255 26.2277 107.788 26.5691 107.211 26.8409C106.641 27.1127 105.945 27.2486 105.123 27.2486ZM106.465 23.8778C107.148 23.8778 107.725 23.6922 108.195 23.321C108.673 22.9432 109.037 22.4162 109.289 21.7401C109.548 21.0639 109.677 20.2718 109.677 19.3636C109.677 18.4555 109.551 17.6667 109.299 16.9972C109.047 16.3277 108.683 15.8106 108.205 15.446C107.728 15.0814 107.148 14.8991 106.465 14.8991C105.769 14.8991 105.183 15.0881 104.705 15.4659C104.228 15.8437 103.867 16.3674 103.621 17.0369C103.376 17.7064 103.254 18.482 103.254 19.3636C103.254 20.2519 103.376 21.0374 103.621 21.7202C103.873 22.3963 104.235 22.9266 104.705 23.3111C105.183 23.6889 105.769 23.8778 106.465 23.8778ZM117.296 27V11.7273H121.402V14.392H121.561C121.84 13.4441 122.307 12.7282 122.963 12.2443C123.62 11.7538 124.375 11.5085 125.23 11.5085C125.443 11.5085 125.671 11.5218 125.917 11.5483C126.162 11.5748 126.377 11.6113 126.563 11.6577V15.4162C126.364 15.3565 126.089 15.3035 125.738 15.2571C125.386 15.2107 125.065 15.1875 124.773 15.1875C124.15 15.1875 123.593 15.3234 123.103 15.5952C122.619 15.8603 122.234 16.2315 121.949 16.7088C121.671 17.1861 121.532 17.7363 121.532 18.3594V27H117.296ZM134.942 27.2983C133.398 27.2983 132.062 26.9702 130.935 26.3139C129.815 25.651 128.95 24.7296 128.34 23.5497C127.73 22.3632 127.425 20.9877 127.425 19.4233C127.425 17.8456 127.73 16.4669 128.34 15.2869C128.95 14.1004 129.815 13.179 130.935 12.5227C132.062 11.8598 133.398 11.5284 134.942 11.5284C136.487 11.5284 137.819 11.8598 138.94 12.5227C140.067 13.179 140.935 14.1004 141.545 15.2869C142.155 16.4669 142.46 17.8456 142.46 19.4233C142.46 20.9877 142.155 22.3632 141.545 23.5497C140.935 24.7296 140.067 25.651 138.94 26.3139C137.819 26.9702 136.487 27.2983 134.942 27.2983ZM134.962 24.017C135.665 24.017 136.252 23.8182 136.722 23.4205C137.193 23.0161 137.548 22.4659 137.786 21.7699C138.031 21.0739 138.154 20.2817 138.154 19.3935C138.154 18.5052 138.031 17.7131 137.786 17.017C137.548 16.321 137.193 15.7708 136.722 15.3665C136.252 14.9621 135.665 14.7599 134.962 14.7599C134.253 14.7599 133.656 14.9621 133.173 15.3665C132.695 15.7708 132.334 16.321 132.089 17.017C131.85 17.7131 131.731 18.5052 131.731 19.3935C131.731 20.2817 131.85 21.0739 132.089 21.7699C132.334 22.4659 132.695 23.0161 133.173 23.4205C133.656 23.8182 134.253 24.017 134.962 24.017ZM145.293 27V6.63636H149.529V14.2926H149.658C149.844 13.8816 150.112 13.464 150.464 13.0398C150.822 12.6089 151.286 12.2509 151.856 11.9659C152.433 11.6742 153.148 11.5284 154.004 11.5284C155.117 11.5284 156.145 11.8201 157.086 12.4034C158.027 12.9801 158.78 13.8518 159.343 15.0185C159.906 16.1785 160.188 17.6335 160.188 19.3835C160.188 21.0871 159.913 22.5256 159.363 23.6989C158.819 24.8655 158.077 25.7505 157.136 26.3537C156.201 26.9503 155.154 27.2486 153.994 27.2486C153.172 27.2486 152.472 27.1127 151.896 26.8409C151.326 26.5691 150.858 26.2277 150.494 25.8168C150.129 25.3991 149.851 24.9782 149.658 24.554H149.469V27H145.293ZM149.44 19.3636C149.44 20.2718 149.566 21.0639 149.817 21.7401C150.069 22.4162 150.434 22.9432 150.911 23.321C151.388 23.6922 151.969 23.8778 152.651 23.8778C153.341 23.8778 153.924 23.6889 154.401 23.3111C154.879 22.9266 155.24 22.3963 155.485 21.7202C155.737 21.0374 155.863 20.2519 155.863 19.3636C155.863 18.482 155.74 17.7064 155.495 17.0369C155.25 16.3674 154.888 15.8437 154.411 15.4659C153.934 15.0881 153.347 14.8991 152.651 14.8991C151.962 14.8991 151.379 15.0814 150.901 15.446C150.431 15.8106 150.069 16.3277 149.817 16.9972C149.566 17.6667 149.44 18.4555 149.44 19.3636ZM169.975 27.2983C168.404 27.2983 167.051 26.9801 165.918 26.3438C164.791 25.7008 163.923 24.7926 163.313 23.6193C162.703 22.4394 162.398 21.044 162.398 19.4332C162.398 17.8622 162.703 16.4834 163.313 15.2969C163.923 14.1103 164.781 13.1856 165.888 12.5227C167.002 11.8598 168.308 11.5284 169.806 11.5284C170.813 11.5284 171.751 11.6908 172.62 12.0156C173.495 12.3338 174.257 12.8144 174.907 13.4574C175.563 14.1004 176.073 14.9091 176.438 15.8835C176.802 16.8513 176.985 17.9848 176.985 19.2841V20.4474H164.088V17.8224H172.998C172.998 17.2126 172.865 16.6723 172.6 16.2017C172.335 15.7311 171.967 15.3632 171.496 15.098C171.032 14.8262 170.492 14.6903 169.875 14.6903C169.232 14.6903 168.662 14.8395 168.165 15.1378C167.675 15.4295 167.29 15.8239 167.012 16.321C166.733 16.8116 166.591 17.3584 166.584 17.9616V20.4574C166.584 21.2131 166.723 21.866 167.002 22.4162C167.287 22.9664 167.688 23.3906 168.205 23.6889C168.722 23.9872 169.335 24.1364 170.044 24.1364C170.515 24.1364 170.946 24.0701 171.337 23.9375C171.728 23.8049 172.063 23.6061 172.341 23.3409C172.62 23.0758 172.832 22.7509 172.978 22.3665L176.895 22.625C176.696 23.5663 176.289 24.3883 175.672 25.0909C175.062 25.7869 174.274 26.3305 173.306 26.7216C172.345 27.1061 171.234 27.2983 169.975 27.2983Z" fill="#043873"/>
<path d="M34.5982 0.759033H27.2887C25.1307 0.759033 24.0517 3.34769 25.6528 4.81232L32.9623 11.5224C34.4938 12.9189 36.9999 11.863 36.9999 9.81933V3.10926C36.9999 1.81493 35.9209 0.759033 34.5982 0.759033Z" fill="#043873"/>
<path d="M20.1533 17.1425L32.9624 28.9277C34.4939 30.3242 37 29.2683 37 27.2246V20.4464C37 19.7993 36.7215 19.1862 36.2342 18.7434L20.1533 3.92673C19.2135 3.0752 17.7865 3.0752 16.8467 3.92673L0.765757 18.7434C0.278457 19.1862 0 19.7993 0 20.4464V27.2246C0 29.2683 2.50611 30.3583 4.03763 28.9277L16.8467 17.1425C17.7865 16.291 19.2135 16.291 20.1533 17.1425Z" fill="#043873"/>
<path d="M0 3.10926V9.81933C0 11.863 2.50611 12.953 4.03763 11.5224L11.3471 4.81232C12.9483 3.34769 11.904 0.759033 9.71119 0.759033H2.40169C1.07902 0.759033 0 1.81493 0 3.10926Z" fill="#043873"/>
</svg>
